<svg clip-rule="evenodd" fill-rule="evenodd" height="512" stroke-linejoin="round" stroke-miterlimit="2" viewBox="0 0 24 24" width="512" xmlns="http://www.w3.org/2000/svg"><g id="Icon"><path d="m20.25 7.5v-4.5c0-.414-.336-.75-.75-.75s-.75.336-.75.75v4.5c0 .414.336.75.75.75s.75-.336.75-.75z"/><path d="m17.47 6.53 1.5 1.5c.293.293.767.293 1.06 0l1.5-1.5c.293-.292.293-.768 0-1.06-.292-.293-.768-.293-1.06 0l-.97.969s-.97-.969-.97-.969c-.292-.293-.768-.293-1.06 0-.293.292-.293.768 0 1.06z"/><path d="m8.337 21.75h8.663c1.26 0 2.468-.5 3.359-1.391.763-.764 1.24-1.76 1.361-2.823l-4.706-3.764c-.519-.416-1.273-.352-1.715.145zm-6.087-7.25v2.5c0 1.26.5 2.468 1.391 3.359.741.74 1.7 1.211 2.726 1.349l5.541-6.233-4.189-3.808c-.444-.403-1.112-.435-1.591-.075zm19.5-6.775-1.013 1.012c-.21.211-.46.356-.726.437l-.005.002c-.147.044-.303.07-.464.073l-.032.001h-.033l-.019-.001c-.161-.003-.316-.029-.464-.073l-.005-.002c-.266-.081-.516-.226-.726-.437l-1.5-1.5c-.683-.683-.683-1.791 0-2.474.277-.278.626-.443.987-.495v-1.268c0-.236.047-.462.132-.667-.289-.055-.584-.083-.882-.083h-10c-1.26 0-2.468.5-3.359 1.391s-1.391 2.099-1.391 3.359v5.625l2.978-2.233c1.055-.792 2.524-.722 3.5.165l4.176 3.797 1.274-1.433c.972-1.094 2.631-1.235 3.773-.32l3.799 3.039zm-12.25-2.725c.828 0 1.5.672 1.5 1.5s-.672 1.5-1.5 1.5-1.5-.672-1.5-1.5.672-1.5 1.5-1.5z"/></g></svg>