<svg id="Layer_5" enable-background="new 0 0 64 64" height="512" viewBox="0 0 64 64" width="512" xmlns="http://www.w3.org/2000/svg"><g><g><g><path d="m54 2v4h-44v4 8h-4v-16z" fill="#f0d0b4"/></g><g><path d="m10 6v12h32l1.45-2.89c.34-.68 1.03-1.11 1.79-1.11h12.76v-8z" fill="#e6e9ed"/></g><g><path d="m2 22v26c0 1.1.9 2 2 2h56c1.1 0 2-.9 2-2v-26z" fill="#ffeaa7"/></g><g><path d="m62 16v6h-60v-2c0-1.1.9-2 2-2h2 4 32l1.45-2.89c.34-.68 1.03-1.11 1.79-1.11h12.76 2c1.1 0 2 .9 2 2z" fill="#fcd770"/></g><g><path d="m49 44c-.02 0-.04.01-.06.01-.49-4.51-4.31-8.01-8.94-8.01-.79 0-1.56.11-2.29.3-2.01-2.61-5.16-4.3-8.71-4.3-5.08 0-9.35 3.45-10.61 8.14-.45-.09-.91-.14-1.39-.14-3.87 0-7 3.13-7 7 0 1.08.24 2.09.68 3 1.12 2.37 3.52 4 6.32 4h32c2.42 0 4.44-1.72 4.9-4 .07-.32.1-.66.1-1 0-2.76-2.24-5-5-5z" fill="#e6e9ed"/></g><g><path d="m33.46 38.76 5.32 8.87c.14.24.22.52.22.8 0 .87-.7 1.57-1.57 1.57h-2.43v4 9h-6v-9-4h-2.43c-.87 0-1.57-.7-1.57-1.57 0-.28.08-.56.22-.8l5.32-8.87c.29-.47.8-.76 1.35-.76h.22c.55 0 1.06.29 1.35.76z" fill="#ff826e"/></g></g><g><path d="m60 13h-1v-8h-4v-4h-50v16h-1c-1.654 0-3 1.346-3 3v28c0 1.654 1.346 3 3 3h6.082c1.386 2.387 3.964 4 6.918 4h11v8h2v-14h-3.434c-.312 0-.566-.254-.566-.566 0-.103.028-.203.081-.291l5.321-8.868c.101-.17.287-.275.485-.275h.227c.198 0 .383.105.485.275l5.321 8.867c.052.088.08.189.08.292 0 .312-.254.566-.566.566h-3.434v14h2v-8h13c2.607 0 4.824-1.673 5.65-4h5.35c1.654 0 3-1.346 3-3v-32c0-1.654-1.346-3-3-3zm-3-6v6h-11.764c-1.144 0-2.171.636-2.683 1.658l-1.171 2.342h-30.382v-10zm-50-4h46v2h-44v12h-2zm42 50h-13v-2h1.434c1.415 0 2.566-1.151 2.566-2.566 0-.465-.126-.922-.366-1.32l-5.32-8.866c-.461-.77-1.304-1.248-2.201-1.248h-.227c-.896 0-1.74.478-2.2 1.246l-5.321 8.867c-.239.399-.365.856-.365 1.321 0 1.415 1.151 2.566 2.566 2.566h1.434v2h-11c-3.309 0-6-2.691-6-6s2.691-6 6-6c.396 0 .797.04 1.193.119l.918.184.244-.904c1.172-4.357 5.139-7.399 9.645-7.399 3.12 0 6.007 1.427 7.921 3.914l.405.526.642-.169c4.912-1.286 9.461 2.129 9.98 6.844l.098.891h.896l.121-.005c2.177.033 3.937 1.814 3.937 3.999 0 2.206-1.794 4-4 4zm12-5c0 .552-.449 1-1 1h-5c0-3.034-2.265-5.55-5.192-5.946-.912-4.647-4.988-8.054-9.808-8.054-.626 0-1.264.064-1.903.19-2.288-2.67-5.568-4.19-9.097-4.19-5.111 0-9.643 3.26-11.314 8.029-.229-.019-.458-.029-.686-.029-4.411 0-8 3.589-8 8 0 .692.097 1.359.263 2h-5.263c-.551 0-1-.448-1-1v-25h58zm0-27h-58v-1c0-.552.449-1 1-1h38.618l1.724-3.447c.17-.341.513-.553.894-.553h14.764c.551 0 1 .448 1 1z"/><path d="m57 17h2v2h-2z"/><path d="m49 17h2v2h-2z"/><path d="m45 17h2v2h-2z"/><path d="m53 17h2v2h-2z"/><path d="m53 9h2v2h-2z"/><path d="m13 9h38v2h-38z"/><path d="m13 13h2v2h-2z"/><path d="m17 13h24v2h-24z"/></g></g></svg>